<svg xmlns="http://www.w3.org/2000/svg" viewBox="66.8667 65.5262 62.266 42.694" width="62.266" height="42.694"><!-- Original vector paths from the supplied BLINK Illustrator artwork. --><path transform="matrix(1,0,0,-1,105.3097,77.456)" d="M0 0C7.158-2.287 11.598-5.464 15.519-11.05 4.531-25.635-4.57-24.591-6.589-25.62 2.216-25.39 11.66-23.032 21.823-11.2 17.994-4.823 9.928-.088 0 0" fill="#ff6b00" />
<path transform="matrix(1,0,0,-1,74.9977,88.6608)" d="M0 0C7.529 9.33 17.143 12.907 23.723 13.439 9.119 14.96-.827 7.613-6.131-.337 1.873-10.203 7.599-10.815 12.628-11.489 2.937-5.993 1.913-2.62 0 0" fill="#ff6b00" />
<path transform="matrix(1,0,0,-1,106.2003,96.2802)" d="M0 0C.517 .614 2.893 3.152 2.56 8.002 2.172 13.659-3.12 15.345-3.12 15.345-3.12 15.345 .408 12.637 .069 6.886-.148 3.185-2.504 .018-5.676-1.937-8.988-3.978-12.6-2.988-12.6-2.988-12.6-2.988-11.438-3.707-9.71-3.812-6.674-3.997-2.508-2.981 0 0" fill="#ff6b00" />
<path transform="matrix(1,0,0,-1,95.0405,89.8432)" d="M0 0 3.492-6.761 10.237 22.317C10.237 22.317 2.899 1.087 2.556 .128 .899 3.7-.167 7.466-.167 7.466L-4.373-5.513C-8.868 .324-7.401 7.645 2.529 10.881-6.843 11.684-11.247 3.647-8.769-2.744-7.619-5.83-5.676-7.558-5.063-8.328-4.971-8.444-7.184-16.377-7.184-16.377Z" fill="#ff6b00" />
</svg>